<svg xmlns="http://www.w3.org/2000/svg" viewBox="0 0 512 512"><title>Photo_Profile</title><g id="Photo_Profile" data-name="Photo Profile"><g id="Photo_Profile-2" data-name="Photo Profile"><path d="M171.3784,321.1231H340.4272v-138.19H171.3784ZM256,201.9082a26.6351,26.6351,0,1,1-26.6355,26.6391A26.6323,26.6323,0,0,1,256,201.9082Zm-15.2145,57.006a31.8014,31.8014,0,0,0,30.4281,0c9.369,8.3844,23.6466,17.7273,23.6466,43.9713H217.1344C217.1344,276.6415,231.4165,267.2986,240.7855,258.9142Z"/><path d="M256,73.8247a182.18,182.18,0,0,0-182.18,182.18c0,100.6083,81.567,182.1708,182.18,182.1708,100.6083,0,182.18-81.5625,182.18-182.1708A182.1828,182.1828,0,0,0,256,73.8247ZM361.003,340.591a8.74,8.74,0,0,1-8.75,8.7444H159.75a8.7425,8.7425,0,0,1-8.7489-8.7444V171.4189a8.7432,8.7432,0,0,1,8.7489-8.7453H352.2532a8.744,8.744,0,0,1,8.75,8.7453V340.591Z"/></g></g></svg>